<?xml version="1.0" encoding="utf-8" ?>
<svg xmlns="http://www.w3.org/2000/svg" xmlns:xlink="http://www.w3.org/1999/xlink" width="1051" height="1051">
	<path fill="#D7D6D6" transform="scale(1.02684 1.02684)" d="M890.853 197.918C891.226 198.654 891.114 198.31 891.276 199.126C891.958 202.553 893.247 205.868 895.273 208.742C898.112 212.768 904.886 213.019 909.323 213.639C905.03 214.754 899.425 215.696 895.919 218.571C891.705 222.026 891.57 228.095 890.98 233.084C889.719 232.903 889.674 223.114 886.37 219.23C882.997 215.264 876.894 215.104 872.127 214.615C876.032 213.582 880.673 212.723 884.097 210.533C888.664 207.612 889.671 202.83 890.853 197.918Z"/>
	<path fill="#D7D6D6" transform="scale(1.02684 1.02684)" d="M246.664 92.8565C247.547 97.385 248.041 102.964 250.504 106.917C253.943 112.435 261.356 113.318 267.193 114.627C262.819 115.017 257.931 115.543 254.174 118.001C248.77 121.536 247.979 128.38 246.809 134.186L246.637 134.217C245.979 133.819 244.094 122.59 241.675 119.839C238.08 115.751 232.56 115.115 227.472 114.691C231.203 113.473 235.24 112.381 238.657 110.426C245.216 106.673 244.576 99.8961 246.412 93.6724C246.492 93.3993 246.58 93.1284 246.664 92.8565Z"/>
	<path fill="#050505" transform="scale(1.02684 1.02684)" d="M89.1916 479.852C91.9291 482.593 93.2165 489.733 95.5096 493.322C98.6295 498.207 104.924 500.374 110.322 501.552C98.0503 506.305 94.9607 508.809 89.3784 521.111C88.2713 518.327 87.2597 515.26 85.7452 512.673C81.7855 505.911 74.9016 504.674 67.9495 502.747C70.6043 501.721 73.3236 500.735 75.8443 499.406C84.2298 494.983 86.5108 488.323 89.1916 479.852Z"/>
	<path fill="#050505" transform="scale(1.02684 1.02684)" d="M841.183 143.319C843.112 145.273 844.122 148.821 845.528 151.248C850.753 160.269 859.323 164.501 868.325 168.893C866.868 169.365 865.408 169.84 863.98 170.392C853.132 174.581 846.214 182.898 841.712 193.333L841.46 193.724C840.28 193.617 839.942 192.548 839.398 191.563C832.245 178.599 829.709 174.415 815.66 168.667C828.126 162.32 834.813 155.706 841.183 143.319Z"/>
	<path fill="#050505" transform="scale(1.02684 1.02684)" d="M913.957 296.312C916.555 295.203 919.011 293.831 921.496 292.494C920.053 350.153 921.688 407.9 920.958 465.569L914.021 465.445C914.409 444.8 913.907 424.05 913.916 403.394L913.957 296.312Z"/>
	<path fill="#002B9E" transform="scale(1.02684 1.02684)" d="M867.455 896.262C872.189 896.043 877.514 896.125 881.165 899.615C882.568 900.955 883.519 902.774 883.428 904.751C883.339 906.685 882.318 908.417 880.859 909.649C879.429 910.857 877.72 911.53 875.878 911.798C870.83 912.532 865.451 912.316 860.348 912.371L833.546 912.507C813.957 912.536 793.482 913.508 773.994 912.103L774.009 896.205Q807.147 896.555 840.287 896.523C847.069 896.534 861.535 897.441 867.455 896.262Z"/>
	<path fill="#050505" transform="scale(1.02684 1.02684)" d="M196.319 143.857C197.629 145.284 199.636 154.734 201.033 157.722C209.097 174.979 222.146 181.296 239.179 187.538C235.51 188.431 231.845 189.665 228.353 191.095C214.876 196.613 206.571 204.817 201.264 218.35C199.747 222.218 198.678 226.27 197.079 230.09L196.408 229.341C194.971 225.244 193.428 221.172 191.555 217.251C182.884 199.103 168.739 192.782 150.641 186.42C156.28 185.651 162.099 184.028 167.293 181.687C184.025 174.145 190.259 160.122 196.319 143.857Z"/>
	<path fill="#002B9E" transform="scale(1.02684 1.02684)" d="M914.021 465.445L920.958 465.569C924.439 467.513 927.541 469.493 928.629 473.62C929.512 476.97 928.618 480.233 927.581 483.425C930.753 486.346 933.683 489.075 936.06 492.702C943.931 504.708 946.265 524.493 946.817 538.689C946.905 540.954 946.934 543.177 946.657 545.432L946.073 545.909C945.383 544.881 945.419 544.421 945.255 543.213C937.065 542.521 928.27 543.173 920.021 543.168C910.505 543.162 900.464 542.458 891.006 543.41C890.163 543.327 890.623 543.437 889.656 542.964C889.511 542.406 889.369 541.887 889.393 541.302C889.538 537.739 890.36 533.876 890.739 530.279C892.597 512.607 895.59 496.202 909.505 483.972C908.481 480.898 907.798 477.681 908.225 474.431C908.757 470.388 910.855 467.815 914.021 465.445Z"/>
	<path fill="#2E11CF" transform="scale(1.02684 1.02684)" d="M896.871 513.235C897.054 519.879 895.153 530.646 897.325 536.558L898.099 537.089C899.444 536.811 900.309 536.813 901.183 535.616C902.986 533.148 903.27 525.986 903.894 522.812L903.997 523.521C904.7 528.628 903.795 533.929 904.748 538.935L905.333 539.357C909.266 534.005 907.793 525.025 909.745 518.751L909.846 518.417C909.82 525.74 909.475 533.079 910.844 540.306C912.899 534.947 913.986 530.159 914.551 524.456C915.063 530.037 915.018 535.861 916.925 541.174C917.818 536.553 918.12 532.073 918.294 527.379C919.743 532.174 919.533 537.241 920.16 542.176Q921.988 533.178 923.489 524.12C923.992 530.482 923.739 536.925 924.573 543.249C924.954 540.902 925.117 537.273 926.551 535.45Q927.272 536.985 928.031 538.502L928.542 538.543C930.348 533.755 928.706 527.182 929.488 521.984C930.294 528.74 930.781 535.07 933.446 541.399C934.097 538.025 934.537 534.709 934.556 531.264C934.566 529.418 933.999 527.46 934.316 525.687L934.795 525.986C935.336 530.241 935.498 535.728 939.063 538.626L940.158 538.837C941.379 537.583 941.403 535.99 941.398 534.298C941.379 528.87 939.901 523.55 939.776 518.135C942.159 525.688 945.4 535.283 945.255 543.213C937.065 542.521 928.27 543.173 920.021 543.168C910.505 543.162 900.464 542.458 891.006 543.41C891.204 540.03 892.348 536.618 892.981 533.28C894.245 526.613 895.3 519.838 896.871 513.235Z"/>
	<path fill="#050505" transform="scale(1.02684 1.02684)" d="M918.867 602.144C927.349 601.248 936.107 602.992 943.26 607.754C951.41 613.18 957.646 622.349 959.481 631.978C961.425 642.184 959.381 652.642 953.415 661.174C946.707 670.765 937.977 675.477 926.626 677.479C916.576 677.954 907.87 676.609 899.526 670.604C891.64 664.928 885.788 656.165 884.249 646.519Q884.103 645.599 884.002 644.674Q883.901 643.748 883.846 642.819Q883.791 641.889 883.781 640.958Q883.771 640.027 883.807 639.096Q883.843 638.166 883.924 637.238Q884.006 636.311 884.132 635.388Q884.259 634.466 884.431 633.551Q884.603 632.635 884.819 631.73Q885.035 630.824 885.296 629.93Q885.556 629.036 885.86 628.156Q886.164 627.276 886.511 626.412Q886.857 625.548 887.246 624.701Q887.634 623.855 888.064 623.029Q888.494 622.203 888.963 621.399Q889.432 620.595 889.941 619.815Q890.449 619.034 890.995 618.28C898.008 608.779 907.371 603.952 918.867 602.144Z"/>
	<path fill="#D7D6D6" transform="scale(1.02684 1.02684)" d="M834.975 811.103C835.174 811.127 835.372 811.153 835.571 811.174C846.725 812.386 877.073 808.201 883.965 816.578C885.022 817.862 885.716 819.448 885.553 821.142C885.357 823.186 883.756 824.92 882.116 826.006C877.732 828.91 872.457 828.664 867.438 828.566C867.167 840.616 867.603 852.634 867.508 864.674C867.426 875.153 866.511 885.81 867.455 896.262C861.535 897.441 847.069 896.534 840.287 896.523Q807.147 896.555 774.009 896.205L774.003 828.501C773.842 822.878 773.889 817.3 774.039 811.678C794.221 811.498 814.916 813.563 834.975 811.103Z"/>
	<path fill="#002B9E" transform="scale(1.02684 1.02684)" d="M834.975 811.103C835.174 811.127 835.372 811.153 835.571 811.174C846.725 812.386 877.073 808.201 883.965 816.578C885.022 817.862 885.716 819.448 885.553 821.142C885.357 823.186 883.756 824.92 882.116 826.006C877.732 828.91 872.457 828.664 867.438 828.566C855.469 827.859 843.202 828.268 831.205 828.313L774.003 828.501C773.842 822.878 773.889 817.3 774.039 811.678C794.221 811.498 814.916 813.563 834.975 811.103Z"/>
	<path fill="#6BB35A" transform="scale(1.02684 1.02684)" d="M63.0013 683.601C89.1209 679.982 121.244 680.819 147.268 685.013C156.581 686.514 165.869 688.83 175.092 690.826C180.792 693.381 186.875 695.06 192.751 697.167Q202.591 700.781 212.017 705.366C212.578 714.518 212.902 723.782 214.231 732.858C218.292 760.611 230.6 786.537 251.729 805.267C258.203 811.006 264.99 815.411 272.688 819.289C258.441 830.091 250.416 837.755 247.929 856.422C247.19 861.969 247.285 867.605 247.827 873.166C248.028 875.224 248.699 877.495 248.712 879.529C248.718 880.444 248.722 880.653 248.117 881.291C245.644 881.996 243.119 882.46 240.592 882.921C189.315 892.287 139.618 877.664 95.6523 851.468C86.6915 846.129 78.2125 840.072 69.6321 834.153C75.9972 829.079 83.2631 824.895 90.3525 820.916C111.299 809.162 132.452 800.817 155.358 793.805C149.377 790.393 143.69 785.622 138.305 781.339C114.956 762.768 96.6329 739.196 80.9976 713.956C74.8039 703.957 69.175 693.616 63.0013 683.601Z"/>
	<path fill="#050505" transform="scale(1.02684 1.02684)" d="M192.897 284.166Q200.011 273.923 207.699 264.102Q215.386 254.282 223.622 244.916Q231.858 235.551 240.615 226.671Q249.371 217.791 258.621 209.425Q262.002 206.31 265.46 203.281Q268.918 200.251 272.45 197.309Q275.983 194.367 279.587 191.513Q283.192 188.66 286.866 185.897Q290.541 183.134 294.283 180.464Q298.025 177.794 301.833 175.218Q305.64 172.642 309.511 170.161Q313.382 167.681 317.313 165.297Q321.244 162.914 325.233 160.629Q329.223 158.345 333.268 156.161Q337.313 153.976 341.411 151.893Q345.51 149.81 349.659 147.83Q353.807 145.85 358.004 143.974Q362.201 142.098 366.444 140.327Q370.686 138.556 374.972 136.891Q379.257 135.226 383.582 133.669Q387.908 132.112 392.271 130.663Q396.633 129.213 401.031 127.874Q405.429 126.534 409.858 125.304Q414.288 124.074 418.747 122.955Q423.206 121.836 427.691 120.828Q432.177 119.82 436.686 118.925Q441.195 118.029 445.725 117.246Q450.255 116.463 454.803 115.793Q459.352 115.124 463.915 114.567Q468.478 114.011 473.054 113.569Q477.63 113.127 482.216 112.798Q486.801 112.47 491.393 112.257Q495.986 112.043 500.582 111.944Q505.178 111.844 509.775 111.86Q514.372 111.875 518.968 112.005Q523.563 112.135 528.154 112.379C602.601 115.766 672.759 142.803 733.418 185.431C746.968 194.953 761.7 205.129 772.923 217.422C779.001 221.873 801.369 230.116 809.532 233.71L883.256 266.016C899.683 273.125 916.252 279.796 932.391 287.558Q926.922 289.978 921.496 292.494C919.011 293.831 916.555 295.203 913.957 296.312C898.013 304.026 881.685 310.995 865.53 318.257C857.763 321.749 849.047 324.982 841.862 329.515C850.46 344.075 856.93 359.499 862.936 375.284C890.939 448.888 892.62 527.186 873.125 603.174C863.867 639.261 847.548 672.16 826.406 702.697C822.695 708.057 819.145 714.081 814.916 719.011C831.385 719.522 844.338 720.638 856.234 733.286C864.692 742.278 869.931 754.383 869.485 766.824C869.049 779.029 863.3 791.275 854.286 799.5C848.681 804.613 841.911 808.152 834.975 811.103C814.916 813.563 794.221 811.498 774.039 811.678C773.889 817.3 773.842 822.878 774.003 828.501L774.009 896.205L773.994 912.103C773.93 913.948 773.737 915.791 773.583 917.631Q761.087 917.511 748.592 917.673C748.442 915.986 748.556 914.202 748.552 912.503C701.129 911.407 653.564 911.976 606.125 912.099C586.696 912.15 566.974 913.077 547.584 912.241C544.519 912.109 536.165 911.9 533.87 909.759C527.581 903.893 530.255 881.337 529.676 872.444C507.473 874.772 488.992 873.891 466.964 871.19Q466.279 872.258 465.543 873.291Q464.806 874.324 464.02 875.319Q463.234 876.315 462.401 877.271Q461.567 878.227 460.688 879.142Q459.808 880.056 458.885 880.926Q457.962 881.797 456.998 882.621Q456.034 883.445 455.03 884.221Q454.027 884.997 452.987 885.723Q451.946 886.449 450.872 887.124Q449.798 887.798 448.692 888.419Q447.585 889.04 446.45 889.607Q445.315 890.173 444.154 890.683Q442.992 891.194 441.808 891.647Q440.623 892.1 439.417 892.494Q438.211 892.889 436.988 893.224Q435.764 893.559 434.526 893.834Q433.294 894.101 432.05 894.306Q430.806 894.511 429.554 894.654Q428.301 894.797 427.043 894.878Q425.785 894.959 424.525 894.977Q423.264 894.995 422.005 894.95Q420.745 894.905 419.489 894.798Q418.233 894.691 416.984 894.522Q415.734 894.352 414.495 894.121Q413.256 893.889 412.03 893.596Q410.804 893.304 409.594 892.95Q408.384 892.597 407.193 892.184Q406.002 891.771 404.833 891.299Q403.664 890.828 402.519 890.298Q401.375 889.769 400.259 889.183Q399.143 888.598 398.057 887.958Q396.971 887.317 395.918 886.624C383.375 878.532 375.309 865.379 372.1 850.926C367.593 853.927 363.117 857.112 358.496 859.927C360.047 875.235 356.014 889.074 346.215 901.074C336.68 912.752 323.313 919.13 308.42 920.561C292.633 922.077 278.722 917.399 266.568 907.353C262.56 904.04 258.547 900.119 255.672 895.756C253.681 892.734 250.316 882.409 248.117 881.291C248.722 880.653 248.718 880.444 248.712 879.529C248.699 877.495 248.028 875.224 247.827 873.166C247.285 867.605 247.19 861.969 247.929 856.422C250.416 837.755 258.441 830.091 272.688 819.289C264.99 815.411 258.203 811.006 251.729 805.267C230.6 786.537 218.292 760.611 214.231 732.858C212.902 723.782 212.578 714.518 212.017 705.366Q202.591 700.781 192.751 697.167C186.875 695.06 180.792 693.381 175.092 690.826C175.242 690.372 175.35 690.155 175.189 689.556C174.746 687.906 170.265 681.385 169.004 679.103Q164.956 671.707 161.345 664.088Q158.09 657.17 155.144 650.115Q152.198 643.06 149.567 635.882Q146.936 628.704 144.626 621.416Q142.316 614.128 140.33 606.745Q138.345 599.362 136.688 591.898Q135.031 584.435 133.707 576.905Q132.382 569.375 131.392 561.794Q130.402 554.213 129.749 546.596C124.168 485.488 133.678 424.852 155.301 367.565C159.599 356.177 164.595 344.957 169.848 333.978C172.695 328.025 178.771 318.88 180.049 312.744C181.709 304.77 179.979 293.942 180.883 285.281C184.918 284.817 188.869 284.952 192.897 284.166ZM336.525 659.169C350.532 684.931 368.93 705.809 389.787 726.215C393.92 723.553 398.338 720.909 401.939 717.545L403.007 718.627C403.07 725.389 403.311 732.277 402.711 739.019C433.939 760.752 489.121 772.737 526.717 765.897Q534.506 764.415 542.062 762.014Q549.619 759.613 556.834 756.326C561.182 754.32 565.417 751.811 569.841 750.023C569.13 745.873 567.653 741.961 566.213 738.022L564.053 737.908C560.239 737.812 556.398 737.954 552.583 737.998L552.483 728.519C552.863 725.483 552.794 722.399 552.82 719.344C555.194 719.099 557.609 719.069 559.994 718.963Q579.68 719.945 599.371 719.048C599.106 714.224 599.082 709.39 599.013 704.561C605.445 704.476 612.965 703.679 619.264 704.738C628.189 693.327 628.131 680.898 627.32 667.093Q626.796 657.035 625.706 647.022L630.984 646.894C634.113 646.605 637.32 646.642 640.464 646.555C640.493 641.73 640.575 636.993 641.077 632.186C649.304 631.523 658.597 632.539 666.596 630.9C669.965 630.971 677.555 632.007 680.412 630.976C680.781 627 682.212 622.75 683.124 618.814C685.031 610.578 686.834 602.277 687.708 593.857C693.564 537.409 677.831 493.541 642.245 449.916C640.235 446.208 634.973 442.538 631.767 439.71C610.525 420.976 586.274 406.539 559.025 398.484C519.889 386.913 475.426 386.762 436.915 401.029C428.342 404.205 420.126 408.387 412.111 412.766C395.308 421.947 379.552 432.741 365.889 446.251C345.835 466.079 330.028 493.718 322.114 520.772Q321.486 522.912 320.911 525.066Q320.336 527.221 319.813 529.389Q319.29 531.557 318.82 533.737Q318.35 535.917 317.933 538.108Q317.516 540.298 317.153 542.499Q316.789 544.699 316.479 546.907Q316.169 549.116 315.913 551.331Q315.657 553.547 315.455 555.767Q315.253 557.988 315.105 560.214Q314.957 562.439 314.863 564.667Q314.769 566.895 314.729 569.125Q314.689 571.354 314.704 573.584Q314.718 575.814 314.787 578.043Q314.856 580.272 314.979 582.499Q315.101 584.726 315.278 586.949Q315.455 589.172 315.686 591.39Q315.917 593.608 316.202 595.82Q316.487 598.032 316.825 600.236Q317.164 602.44 317.556 604.636Q317.948 606.831 318.393 609.016Q318.838 611.201 319.337 613.375Q319.835 615.549 320.386 617.71Q320.937 619.871 321.54 622.018Q322.144 624.165 322.799 626.296Q323.454 628.428 324.161 630.543Q324.868 632.658 325.627 634.755Q326.385 636.852 327.194 638.93Q328.003 641.009 328.862 643.067Q329.721 645.124 330.63 647.161Q331.539 649.197 332.498 651.211Q333.456 653.225 334.463 655.214Q335.47 657.204 336.525 659.169Z"/>
	<path fill="#002B9E" transform="scale(1.02684 1.02684)" d="M402.25 754.409C404.322 756.939 402.905 784.652 403.319 789.675C400.853 791.103 398.274 792.224 395.67 793.372L394.894 793.501C394.388 790.792 397.356 785.123 398.064 782.162C400.217 773.152 401.086 763.599 402.25 754.409Z"/>
	<path fill="#D7D6D6" transform="scale(1.02684 1.02684)" d="M265.688 846.634C267.559 846.641 269.489 846.749 270.955 848.066C272.377 849.345 272.899 851.29 272.845 853.15C272.686 858.579 269.531 863.422 265.668 866.979C263.587 866.637 261.553 866.298 260.079 864.641C258.558 862.932 258.186 860.506 258.474 858.301C259.092 853.566 261.943 849.444 265.688 846.634Z"/>
	<path fill="#D7D6D6" transform="scale(1.02684 1.02684)" d="M388.631 820.496C389.686 820.474 390.785 820.458 391.829 820.645C393.407 820.927 394.719 821.855 395.551 823.223C396.572 824.9 396.202 827.211 395.683 828.975C394.142 834.211 390.642 838.193 385.96 840.831C383.592 840.52 381.077 839.872 379.598 837.822C378.494 836.292 378.412 834.498 378.798 832.72C379.993 827.206 384.083 823.381 388.631 820.496Z"/>
	<path fill="#D7D6D6" transform="scale(1.02684 1.02684)" d="M409.416 805.085C411.285 804.738 413.181 804.996 415.023 805.432C416.299 805.733 416.899 806.393 417.592 807.477C417.995 809.312 417.72 810.582 416.939 812.26C414.391 817.74 409.686 820.626 404.201 822.47C402.166 822.909 400.359 822.655 398.458 821.783C397.388 821.292 396.604 820.245 396.332 819.112C395.787 816.845 396.555 814.461 397.72 812.517C400.365 808.102 404.648 806.249 409.416 805.085Z"/>
	<path fill="#D7D6D6" transform="scale(1.02684 1.02684)" d="M286.04 825.551C288.26 825.373 289.89 825.769 291.943 826.647C293.023 827.109 293.904 827.806 294.247 828.982C294.737 830.663 294.107 832.532 293.353 834.037C290.493 839.746 285.145 842.643 279.398 844.693C277.117 844.992 274.344 844.551 272.293 843.427C271.478 842.981 270.824 842.151 270.636 841.237C270.26 839.409 271.011 837.454 271.861 835.869C274.972 830.064 279.984 827.361 286.04 825.551Z"/>
	<path fill="#D7D6D6" transform="scale(1.02684 1.02684)" d="M180.293 461.929L285.93 462.016C286.964 469.644 286.492 477.36 285.971 485.007C268.144 485.587 250.361 485.485 232.53 485.536C215.128 485.585 197.729 485.829 180.33 485.374C179.316 477.732 179.911 469.617 180.293 461.929Z"/>
	<path fill="#D7D6D6" transform="scale(1.02684 1.02684)" d="M232.09 505.78C238.571 504.996 245.708 505.889 252.248 505.944C263.485 506.038 274.759 505.686 285.996 505.508L286.004 529.688C268.849 530.388 251.545 529.744 234.375 529.571C216.326 529.261 198.131 529.987 180.055 529.986C179.768 521.916 179.929 513.873 180.124 505.802Q206.107 506.165 232.09 505.78Z"/>
	<defs>
		<linearGradient id="gradient_0" gradientUnits="userSpaceOnUse" x1="705.1059" y1="731.15802" x2="718.58203" y2="624.02289">
			<stop offset="0" stop-color="#002C9E"/>
			<stop offset="1" stop-color="#2F12D0"/>
		</linearGradient>
	</defs>
	<path fill="url(#gradient_0)" transform="scale(1.02684 1.02684)" d="M666.596 630.9C669.965 630.971 677.555 632.007 680.412 630.976L748.542 630.977C761.309 630.976 777.027 629.623 789.389 632.587Q790.754 632.904 792.093 633.316Q793.432 633.729 794.738 634.235Q796.045 634.74 797.312 635.337Q798.58 635.933 799.803 636.618Q801.025 637.302 802.196 638.071Q803.368 638.84 804.482 639.689Q805.596 640.539 806.648 641.465Q807.699 642.39 808.683 643.388C817.088 651.96 821.64 662.964 821.459 675.001C821.276 687.192 815.497 699.61 806.762 708.018C802.563 712.059 796.43 716.748 790.648 717.986C780.892 720.074 770.492 719.517 760.571 719.493L727.129 719.306L660.275 719.163C640.001 719.046 619.638 718.614 599.371 719.048C599.106 714.224 599.082 709.39 599.013 704.561C605.445 704.476 612.965 703.679 619.264 704.738C619.628 704.796 619.991 704.865 620.358 704.897C627.073 705.481 634.463 704.543 641.244 704.544L687.425 704.758L742.49 704.836C756.412 704.956 771.483 706.085 785.241 703.838C789.221 703.187 793.349 700.549 796.362 697.907C802.265 692.731 805.964 686.157 806.398 678.241C806.867 669.695 804.23 661.731 798.399 655.389Q797.676 654.592 796.894 653.854Q796.112 653.115 795.274 652.439Q794.437 651.764 793.551 651.155Q792.664 650.546 791.732 650.008Q790.801 649.469 789.831 649.005Q788.86 648.54 787.857 648.152Q786.854 647.763 785.824 647.454Q784.793 647.145 783.742 646.916C773.589 644.793 755.806 645.997 744.772 646.026Q699.315 646.371 653.857 646.187C646.496 646.137 639.153 647.253 631.803 646.934L630.984 646.894C634.113 646.605 637.32 646.642 640.464 646.555C640.493 641.73 640.575 636.993 641.077 632.186C649.304 631.523 658.597 632.539 666.596 630.9Z"/>
	<path fill="#D7D6D6" transform="scale(1.02684 1.02684)" d="M630.984 646.894L631.803 646.934C639.153 647.253 646.496 646.137 653.857 646.187Q699.315 646.371 744.772 646.026C755.806 645.997 773.589 644.793 783.742 646.916Q784.793 647.145 785.824 647.454Q786.854 647.763 787.857 648.152Q788.86 648.54 789.831 649.005Q790.801 649.469 791.732 650.008Q792.664 650.546 793.551 651.155Q794.437 651.764 795.275 652.439Q796.112 653.115 796.894 653.854Q797.676 654.592 798.399 655.389C804.23 661.731 806.867 669.695 806.398 678.241C805.964 686.157 802.265 692.731 796.362 697.907C793.349 700.549 789.221 703.187 785.241 703.838C771.483 706.085 756.412 704.956 742.49 704.836L687.425 704.758L641.244 704.544C634.463 704.543 627.073 705.481 620.358 704.897C619.991 704.865 619.628 704.796 619.264 704.738C628.189 693.327 628.131 680.898 627.32 667.093Q626.796 657.035 625.706 647.022L630.984 646.894Z"/>
	<path fill="#D7D6D6" transform="scale(1.02684 1.02684)" d="M471.955 249.418C472.092 247.51 472.188 245.395 471.846 243.51C469.483 230.491 452.327 239.317 444.42 233.808C441.958 232.092 440.597 229.22 440.161 226.314C439.684 223.145 439.877 219.249 441.95 216.641C444.66 213.232 449.7 212.282 453.802 211.898C459.341 211.38 465.097 211.986 470.662 212.015L504.777 212.006L551.113 211.98C560.948 211.975 571.236 211.339 580.973 212.786C587.774 213.798 594.252 216.043 599.574 220.504C606.884 226.631 609.468 234.33 610.291 243.585C610.144 244.721 610.318 245.31 609.298 245.983C605.866 248.248 590.052 254.157 584.718 256.447L551.936 270.546C544.066 274.02 536.244 277.783 528.241 280.933Q524.807 282.292 521.199 283.079L434.056 283.505C421.551 283.528 408.659 284.435 396.209 283.487C392.842 283.231 388.891 282.888 385.986 281.052C383.004 279.169 381.1 276.107 380.362 272.692C379.634 269.324 379.782 265.697 381.778 262.776C383.866 259.721 387.365 258.04 390.886 257.246C398.02 255.636 406.165 256.595 413.457 256.674Q429.186 256.779 444.913 257.083C450.919 257.233 457.664 257.981 463.546 256.674C467.733 255.743 469.755 252.791 471.955 249.418Z"/>
	<path fill="#D7D6D6" transform="scale(1.02684 1.02684)" d="M566.213 738.022C582.556 737.003 599.08 737.486 615.453 737.506L704.708 737.702L785.095 737.486C798.055 737.479 811.76 736.432 824.631 737.777C830.269 738.366 835.684 740.225 839.961 744.059C845.889 749.373 848.839 757.477 849.153 765.314C849.462 773.007 846.177 781.442 840.783 786.931C836.668 791.118 832.159 792.502 826.52 793.151C816.835 794.266 806.445 793.659 796.672 793.65L740.47 793.478L622.75 793.5C606.216 793.505 589.656 793.836 573.126 793.644Q568.747 793.596 564.37 793.488C570.6 779.973 571.531 764.677 569.841 750.023C569.13 745.873 567.653 741.961 566.213 738.022Z"/>
	<path fill="#002B9E" transform="scale(1.02684 1.02684)" d="M230.622 613.09C238.513 620.046 247.155 626.058 255.017 633.088C287.854 662.445 319.451 701.202 322.393 746.925C322.775 752.859 322.712 758.868 322.674 764.811C346.52 743.851 368.238 738.735 398.066 731.838C397.515 742.013 396.241 752.349 394.865 762.445C390.653 793.343 383.533 810.856 360.004 831.977C357.592 834.142 355.086 836.229 352.722 838.442C344.78 824.939 333.395 815.977 318.146 812C311.363 810.231 304.935 809.841 297.977 810.554C295.51 811.092 292.941 811.518 290.542 812.304C284.466 814.367 278.428 816.383 272.688 819.289C264.99 815.411 258.203 811.006 251.729 805.267C230.6 786.537 218.292 760.611 214.231 732.858C212.902 723.782 212.578 714.518 212.017 705.366C212.188 680.559 215.891 657.509 223.234 633.786C225.396 626.803 227.576 619.746 230.622 613.09Z"/>
	<path fill="#D7D6D6" transform="scale(1.02684 1.02684)" d="M276.62 770.295C278.898 769.213 281.293 768.399 283.658 767.529C287.894 782.122 292.285 796.454 297.977 810.554C295.51 811.092 292.941 811.518 290.542 812.304C285.852 798.313 280.938 784.408 276.62 770.295Z"/>
	<path fill="#D7D6D6" transform="scale(1.02684 1.02684)" d="M529.676 872.444C528.751 861.074 529.386 849.031 529.379 837.588C529.375 830.756 529.092 820.87 534.494 815.791C537.02 813.415 540.251 812.037 543.681 811.689C553.658 810.674 564.021 811.185 574.048 811.272Q596.244 811.5 618.442 811.477L701.979 811.333C717.627 811.289 733.332 810.948 748.974 811.325L748.985 828.009L749.032 868C749.111 877.416 749.609 886.695 748.899 896.106C748.848 901.57 748.879 907.047 748.552 912.503C701.129 911.407 653.564 911.976 606.125 912.099C586.696 912.15 566.974 913.077 547.584 912.241C544.519 912.109 536.165 911.9 533.87 909.759C527.581 903.893 530.255 881.337 529.676 872.444Z"/>
	<path fill="#002B9E" transform="scale(1.02684 1.02684)" d="M529.676 872.444C528.751 861.074 529.386 849.031 529.379 837.588C529.375 830.756 529.092 820.87 534.494 815.791C537.02 813.415 540.251 812.037 543.681 811.689C553.658 810.674 564.021 811.185 574.048 811.272Q596.244 811.5 618.442 811.477L701.979 811.333C717.627 811.289 733.332 810.948 748.974 811.325L748.985 828.009L628.106 828.002C601.406 828.049 574.687 828.536 547.992 827.708C548.188 850.519 545.362 873.733 547.513 896.493L748.899 896.106C748.848 901.57 748.879 907.047 748.552 912.503C701.129 911.407 653.564 911.976 606.125 912.099C586.696 912.15 566.974 913.077 547.584 912.241C544.519 912.109 536.165 911.9 533.87 909.759C527.581 903.893 530.255 881.337 529.676 872.444Z"/>
	<path fill="#002B9E" transform="scale(1.02684 1.02684)" d="M723.33 195.45C729.859 198.963 768.759 217.402 772.923 217.422C779.001 221.873 801.369 230.116 809.532 233.71L883.256 266.016C899.683 273.125 916.252 279.796 932.391 287.558Q926.922 289.978 921.496 292.494C919.011 293.831 916.555 295.203 913.957 296.312C898.013 304.026 881.685 310.995 865.53 318.257C857.763 321.749 849.047 324.982 841.862 329.515C837.974 331.422 833.875 332.891 829.836 334.444C830.041 346.312 829.487 358.218 829.465 370.094C829.45 378.321 829.997 386.548 829.946 394.763C829.892 403.357 828.231 410.606 821.862 416.827C802.492 435.745 752.365 442.797 726.12 442.56C699.808 442.321 645.557 437.643 627.108 418.104C624.308 415.138 622.84 411.885 622.05 407.91C620.607 400.651 621.471 392.469 621.473 385.093C621.48 368.449 621.692 351.871 622.003 335.231C610.925 331.138 599.955 325.277 589.203 320.298Q565.181 309.448 541.77 297.335C536.507 294.558 530.693 291.949 525.837 288.507C523.604 286.924 522.532 285.462 521.199 283.079Q524.807 282.292 528.241 280.933C536.244 277.783 544.066 274.02 551.936 270.546L584.718 256.447C590.052 254.157 605.866 248.248 609.298 245.983C610.318 245.31 610.144 244.721 610.291 243.585C610.456 244.435 610.37 244.588 610.992 245.24C615.855 243.572 620.558 241.14 625.239 239.002Q637.02 233.558 648.911 228.359C673.698 217.536 699.08 207.396 723.33 195.45Z"/>
	<path fill="#D7D6D6" transform="scale(1.02684 1.02684)" d="M342.318 584.092C348.172 583.875 354.076 583.984 359.936 583.952Q360.107 585.546 360.247 587.143C360.878 594.533 363.39 607.237 358.309 613.251C357.584 613.688 356.792 614.146 355.982 614.398C353.904 615.045 351.098 614.823 349.203 613.738C345.897 611.844 344.243 608.088 343.337 604.557C342.145 599.916 339.791 588.411 342.318 584.092Z"/>
	<path fill="#D7D6D6" transform="scale(1.02684 1.02684)" d="M375.609 482.579C377.411 483.006 379.32 483.32 381.036 484.033C383.171 484.92 385.305 486.511 386.169 488.726C388.137 493.773 382.878 500.355 380.372 504.591C374.706 514.167 368.582 525.274 365.98 536.176C364.205 543.614 363.286 552.234 360.312 559.259C358.88 562.641 357.52 564.197 354.133 565.598C352.852 565.575 351.534 565.556 350.27 565.322C347.619 564.83 345.231 563.648 343.824 561.271C341.326 557.049 343.324 549.867 344.433 545.402C348.306 529.804 362.224 490.648 375.609 482.579Z"/>
	<path fill="#002B9E" transform="scale(1.02684 1.02684)" d="M642.245 449.916C677.831 493.541 693.564 537.409 687.708 593.857C686.834 602.277 685.031 610.578 683.124 618.814C682.212 622.75 680.781 627 680.412 630.976C677.555 632.007 669.965 630.971 666.596 630.9C658.597 632.539 649.304 631.523 641.077 632.186C640.575 636.993 640.493 641.73 640.464 646.555C637.32 646.642 634.113 646.605 630.984 646.894L625.706 647.022Q626.796 657.035 627.32 667.093C628.131 680.898 628.189 693.327 619.264 704.738C612.965 703.679 605.445 704.476 599.013 704.561C599.082 709.39 599.106 714.224 599.371 719.048Q579.68 719.945 559.994 718.963C557.609 719.069 555.194 719.099 552.82 719.344C552.794 722.399 552.863 725.483 552.483 728.519L552.583 737.998C556.398 737.954 560.239 737.812 564.053 737.908L566.213 738.022C567.653 741.961 569.13 745.873 569.841 750.023C565.417 751.811 561.182 754.32 556.834 756.326Q549.619 759.613 542.062 762.014Q534.506 764.415 526.717 765.897C489.121 772.737 433.939 760.752 402.711 739.019C403.311 732.277 403.07 725.389 403.007 718.627L401.939 717.545C398.338 720.909 393.92 723.553 389.787 726.215C368.93 705.809 350.532 684.931 336.525 659.169C340.653 657.518 344.924 656.504 349.274 655.637C352.376 659.999 354.825 664.906 357.725 669.42C362.691 677.15 368.46 684.201 374.702 690.927C389.043 681.676 402.924 672.763 418.863 666.433C415.227 656.711 412.263 646.626 409.132 636.725C412.496 635.065 415.903 633.981 419.493 632.931Q424.386 647.929 429.806 662.745C452.557 654.807 474.018 650.361 498.093 649.267Q498.277 622.92 498.108 596.572C501.611 594.915 504.901 593.078 508.211 591.064C509.338 609.657 508.475 630.177 508.466 649.011C535.636 650.065 553.01 653.209 578.783 662.092C584.861 643.937 588.988 626.103 591.526 607.094C592.527 599.594 592.945 592.033 593.939 584.538C582.336 583.673 570.577 584.027 558.946 584.052C545.96 584.08 532.927 583.893 519.95 584.382C526.763 579.876 533.791 575.674 540.764 571.424C546.929 571.022 553.292 571.329 559.48 571.284L594.485 570.856C593.885 558.658 592.485 546.689 590.767 534.606L600.235 527.249C600.369 527.829 600.492 528.412 600.63 528.991C603.77 542.233 603.43 556.861 603.902 570.445C627.901 570.788 651.987 570.65 675.989 570.405C675.794 541.981 668.796 516.149 654.343 491.615C650.684 485.403 644.109 478.732 642.099 471.908C640.299 465.797 641.835 456.293 642.245 449.916ZM604.031 584.488C603.024 600.3 602.044 616.807 598.601 632.311C597.639 636.644 595.885 640.856 594.571 645.097C592.483 651.842 590.587 658.652 588.601 665.428C598.376 669.514 608.054 673.441 616.793 679.551C616.018 684.158 615.055 688.711 613.625 693.164C604.875 685.729 595.325 680.023 584.925 675.216C577.264 690.538 570.549 705.291 559.994 718.963Q579.68 719.945 599.371 719.048C599.106 714.224 599.082 709.39 599.013 704.561C605.445 704.476 612.965 703.679 619.264 704.738C628.189 693.327 628.131 680.898 627.32 667.093Q626.796 657.035 625.706 647.022L630.984 646.894C634.113 646.605 637.32 646.642 640.464 646.555C640.493 641.73 640.575 636.993 641.077 632.186C649.304 631.523 658.597 632.539 666.596 630.9C670.967 615.423 674.624 600.859 675.595 584.68L604.031 584.488ZM497.016 658.792C472.255 660.193 457.031 664.031 433.701 672.418C442.73 690.972 451.489 709.826 464.144 726.251C473.359 737.99 484.375 749.135 497.977 755.695C498.077 745.082 499.154 663.013 497.294 658.97L497.016 658.792ZM508.461 658.958Q508.261 685.378 508.56 711.796C508.603 725.082 508.276 738.481 508.772 751.754C522.516 741.764 533.02 733.119 544.613 720.562C557.086 705.406 567.551 689.507 575.434 671.454C552.748 664.283 532.501 658.782 508.461 658.958ZM381.43 697.607C387.838 704.704 394.862 711.129 401.939 717.545L403.007 718.627Q404.875 720.156 406.79 721.628Q408.704 723.1 410.662 724.512Q412.62 725.925 414.62 727.277Q416.621 728.629 418.661 729.919Q420.702 731.21 422.781 732.437Q424.86 733.665 426.976 734.828Q429.092 735.992 431.242 737.09Q433.392 738.188 435.575 739.221Q437.757 740.253 439.97 741.218Q442.184 742.183 444.425 743.081Q446.667 743.978 448.935 744.806Q451.203 745.635 453.495 746.393Q455.787 747.152 458.101 747.841Q460.415 748.529 462.75 749.147Q465.084 749.764 467.436 750.31Q469.788 750.856 472.155 751.33C449.422 730.813 435.938 703.177 423.02 675.964C408.325 680.83 394.185 688.923 381.43 697.607ZM519.809 756.828C535.581 752.752 550.78 747.684 564.053 737.908C560.239 737.812 556.398 737.954 552.583 737.998L552.483 728.519C543.395 739.56 531.647 748.891 519.809 756.828Z"/>
</svg>
