<?xml version="1.0" standalone="no"?>
<!DOCTYPE svg PUBLIC "-//W3C//DTD SVG 20010904//EN"
 "http://www.w3.org/TR/2001/REC-SVG-20010904/DTD/svg10.dtd">
<svg version="1.0" xmlns="http://www.w3.org/2000/svg"
 width="24.000000pt" height="24.000000pt" viewBox="0 0 24.000000 24.000000"
 preserveAspectRatio="xMidYMid meet">

<g transform="translate(0.000000,24.000000) scale(0.100000,-0.100000)"
fill="#000000" stroke="none">
<path d="M51 226 c-33 -18 -50 -53 -51 -104 0 -81 40 -122 121 -122 78 0 119
41 119 120 0 52 -18 88 -51 106 -35 17 -106 18 -138 0z m73 -58 c16 -26 -4
-72 -33 -76 -17 -3 -22 -9 -18 -23 4 -13 0 -19 -11 -19 -14 0 -17 11 -15 67 1
38 2 69 2 70 1 1 15 1 32 0 18 -1 37 -10 43 -19z m82 11 c3 -5 -5 -9 -16 -9
-20 0 -22 -4 -18 -40 3 -31 0 -40 -12 -40 -12 0 -15 11 -13 47 1 27 2 49 2 49
3 6 53 0 57 -7z"/>
<path d="M72 138 c4 -43 33 -46 33 -3 0 21 -5 31 -18 33 -15 3 -18 -2 -15 -30z"/>
</g>
</svg>
