<?xml version="1.0" encoding="utf-8" ?>
<svg xmlns="http://www.w3.org/2000/svg" xmlns:xlink="http://www.w3.org/1999/xlink" width="1024" height="1024">
	<path fill="#222" d="M510.606 146.727L511.184 146.715C604.973 145.04 699.912 185.642 766.838 250.629Q770.035 253.693 773.154 256.835Q776.274 259.977 779.314 263.196Q782.355 266.415 785.314 269.709Q788.274 273.003 791.15 276.369Q794.026 279.735 796.818 283.172Q799.61 286.609 802.315 290.114Q805.021 293.62 807.638 297.191Q810.255 300.763 812.783 304.399Q815.31 308.034 817.747 311.732Q820.183 315.429 822.526 319.186Q824.87 322.943 827.119 326.757Q829.368 330.571 831.522 334.44Q833.676 338.309 835.732 342.23Q837.789 346.151 839.747 350.122Q841.706 354.094 843.565 358.112Q845.424 362.131 847.182 366.195Q848.94 370.259 850.597 374.365Q852.254 378.471 853.807 382.617Q855.361 386.764 856.812 390.947Q858.262 395.131 859.607 399.35Q860.953 403.568 862.193 407.819Q863.433 412.069 864.568 416.349Q865.702 420.63 866.729 424.937Q867.756 429.244 868.676 433.575Q869.595 437.907 870.407 442.259Q871.218 446.612 871.921 450.984Q872.624 455.356 873.218 459.744Q873.812 464.132 874.296 468.533Q874.781 472.934 875.156 477.346Q875.53 481.758 875.795 486.178Q876.06 490.598 876.215 495.023Q876.369 499.448 876.414 503.876Q876.513 508.387 876.502 512.899Q876.49 517.411 876.367 521.921Q876.243 526.431 876.009 530.937Q875.775 535.443 875.429 539.942Q875.084 544.441 874.628 548.93Q874.171 553.418 873.604 557.895Q873.038 562.371 872.36 566.832Q871.683 571.293 870.896 575.735Q870.109 580.178 869.213 584.6Q868.317 589.022 867.312 593.421Q866.307 597.82 865.193 602.192Q864.08 606.564 862.859 610.908Q861.638 615.252 860.311 619.564Q858.983 623.876 857.55 628.155Q856.116 632.433 854.577 636.674Q853.039 640.916 851.396 645.118Q849.753 649.32 848.007 653.481Q846.261 657.641 844.413 661.757Q842.565 665.873 840.616 669.943Q838.667 674.012 836.618 678.032Q834.569 682.052 832.422 686.02Q830.274 689.988 828.03 693.903Q825.785 697.817 823.445 701.674Q821.104 705.532 818.67 709.33Q816.235 713.129 813.707 716.866Q811.179 720.603 808.56 724.277Q805.94 727.951 803.231 731.559Q800.522 735.167 797.725 738.708Q794.928 742.248 792.044 745.718Q789.16 749.188 786.192 752.586Q783.223 755.984 780.172 759.308Q777.12 762.632 773.988 765.879C703.563 837.963 613.112 875.579 512.363 876.632Q508.134 876.632 503.907 876.534Q499.679 876.436 495.455 876.241Q491.231 876.045 487.013 875.753Q482.794 875.46 478.584 875.071Q474.373 874.681 470.172 874.194Q465.972 873.708 461.784 873.124Q457.595 872.541 453.422 871.861Q449.248 871.181 445.091 870.406Q440.934 869.63 436.797 868.759Q432.659 867.887 428.542 866.921Q424.425 865.955 420.332 864.894Q416.239 863.833 412.171 862.677Q408.103 861.522 404.063 860.274Q400.023 859.025 396.012 857.684Q392.002 856.343 388.024 854.909Q384.046 853.476 380.101 851.951Q376.157 850.426 372.249 848.811Q368.341 847.196 364.472 845.491Q360.602 843.786 356.772 841.993Q352.943 840.199 349.156 838.318Q345.369 836.437 341.626 834.468Q337.883 832.5 334.187 830.446Q330.491 828.393 326.843 826.254Q323.195 824.115 319.597 821.893Q315.999 819.672 312.454 817.367Q308.908 815.063 305.416 812.677Q301.925 810.292 298.489 807.827Q295.054 805.361 291.676 802.818Q288.298 800.274 284.979 797.653Q281.661 795.032 278.404 792.335Q275.147 789.638 271.953 786.867Q268.758 784.096 265.629 781.252C190.668 712.448 151.026 623.496 146.829 522.225Q146.667 517.808 146.613 513.388Q146.56 508.968 146.615 504.549Q146.67 500.129 146.834 495.712Q146.999 491.295 147.272 486.883Q147.545 482.471 147.926 478.068Q148.308 473.664 148.798 469.271Q149.287 464.878 149.885 460.499Q150.483 456.119 151.189 451.756Q151.895 447.393 152.707 443.048Q153.52 438.703 154.44 434.38Q155.36 430.056 156.385 425.757Q157.411 421.458 158.543 417.185Q159.674 412.912 160.911 408.668Q162.147 404.425 163.487 400.213Q164.828 396.001 166.272 391.823Q167.716 387.646 169.262 383.505Q170.808 379.364 172.456 375.262Q174.104 371.161 175.852 367.101Q177.601 363.042 179.448 359.026Q181.296 355.011 183.242 351.043Q185.188 347.074 187.232 343.154Q189.275 339.235 191.414 335.367Q193.554 331.499 195.787 327.685Q198.021 323.871 200.348 320.113Q202.676 316.355 205.094 312.656Q207.513 308.956 210.023 305.318Q212.532 301.679 215.13 298.103Q217.729 294.527 220.414 291.017Q223.1 287.506 225.871 284.062Q228.642 280.619 231.497 277.244Q234.352 273.87 237.29 270.567Q240.227 267.265 243.245 264.035Q245.676 261.414 248.157 258.842Q250.639 256.269 253.17 253.746Q255.702 251.222 258.283 248.749Q260.863 246.276 263.492 243.854Q266.12 241.432 268.796 239.062Q271.472 236.692 274.194 234.375Q276.915 232.058 279.682 229.795Q282.449 227.532 285.259 225.324Q288.07 223.115 290.923 220.963Q293.777 218.81 296.672 216.714Q299.567 214.617 302.502 212.578Q305.438 210.539 308.413 208.558Q311.388 206.577 314.402 204.655Q317.415 202.732 320.466 200.869Q323.516 199.007 326.603 197.204Q329.69 195.402 332.811 193.66Q335.932 191.918 339.087 190.238Q342.242 188.558 345.43 186.941Q348.617 185.323 351.835 183.768Q355.054 182.213 358.302 180.722Q361.551 179.23 364.828 177.803Q368.105 176.376 371.409 175.013Q374.714 173.65 378.044 172.353Q381.375 171.055 384.73 169.823Q388.085 168.591 391.464 167.425Q394.843 166.259 398.244 165.16Q401.645 164.061 405.067 163.028Q408.489 161.996 411.931 161.031Q415.373 160.066 418.833 159.169Q422.292 158.272 425.769 157.443Q429.246 156.613 432.739 155.853Q436.231 155.092 439.738 154.4C463.202 149.762 486.75 147.69 510.606 146.727ZM176.863 624.479C176.965 624.584 177.069 624.687 177.168 624.795C182.488 630.55 189.993 646.992 194.719 654.701C202.682 667.689 211.763 679.963 220.969 692.087C235.282 710.937 250.297 729.374 267.2 745.982C327.224 804.959 407.907 845.036 492.561 849.601Q514.54 850.653 536.506 849.375C545.023 848.9 553.576 847.953 562.098 847.753C572.733 847.503 583.49 848.521 594.112 849.004C599.969 849.271 606.905 848.533 612.574 850.009C624.792 847.103 637.089 842.234 648.656 837.376Q652.638 835.741 656.578 834.008Q660.519 832.276 664.415 830.446Q668.311 828.616 672.161 826.69Q676.01 824.764 679.811 822.743Q683.612 820.722 687.361 818.607Q691.111 816.493 694.807 814.286Q698.502 812.079 702.142 809.782Q705.782 807.484 709.364 805.097Q712.946 802.709 716.468 800.234Q719.989 797.759 723.449 795.197Q726.908 792.635 730.302 789.988Q733.697 787.341 737.025 784.611Q740.353 781.881 743.612 779.069Q746.871 776.257 750.06 773.365Q753.248 770.474 756.364 767.504Q759.48 764.534 762.521 761.487Q765.563 758.441 768.527 755.32Q771.492 752.2 774.379 749.006Q777.265 745.813 780.072 742.549Q782.878 739.285 785.603 735.953Q788.328 732.62 790.969 729.221Q793.61 725.823 796.166 722.359Q798.722 718.896 801.192 715.37Q803.661 711.844 806.043 708.258Q808.424 704.673 810.716 701.029Q813.008 697.385 815.208 693.686Q817.409 689.986 819.517 686.233Q821.626 682.48 823.64 678.676Q825.655 674.872 827.575 671.019Q829.494 667.167 831.318 663.267Q833.141 659.368 834.868 655.425Q836.594 651.482 838.222 647.497Q839.872 643.427 841.422 639.318Q842.973 635.209 844.423 631.063Q845.873 626.918 847.223 622.738Q848.572 618.559 849.82 614.348Q851.068 610.137 852.213 605.897Q853.358 601.657 854.4 597.391Q855.442 593.124 856.38 588.834Q857.319 584.544 858.153 580.232Q858.987 575.92 859.716 571.589Q860.445 567.258 861.069 562.91Q861.693 558.563 862.211 554.202Q862.729 549.841 863.141 545.468Q863.554 541.096 863.86 536.715Q864.166 532.334 864.366 527.946Q864.566 523.559 864.659 519.168Q864.752 514.777 864.739 510.385Q864.726 505.994 864.607 501.603Q864.487 497.213 864.261 492.827Q864.035 488.441 863.702 484.062Q863.37 479.683 862.931 475.313Q862.493 470.943 861.948 466.585Q861.404 462.227 860.754 457.883Q860.104 453.54 859.349 449.213Q858.594 444.887 857.735 440.58Q856.875 436.273 855.911 431.988Q854.947 427.703 853.88 423.443Q852.812 419.183 851.642 414.95Q850.471 410.717 849.198 406.514Q847.925 402.311 846.551 398.139Q845.176 393.968 843.701 389.831Q842.226 385.695 840.651 381.595Q839.076 377.495 837.402 373.435C800.562 286.233 729.944 219.317 642.509 183.877Q638.512 182.28 634.478 180.78Q630.443 179.281 626.373 177.88Q622.303 176.479 618.201 175.178Q614.098 173.878 609.964 172.677Q605.831 171.477 601.67 170.377Q597.508 169.278 593.321 168.281Q589.134 167.283 584.924 166.388Q580.714 165.494 576.483 164.702Q572.253 163.91 568.004 163.221Q563.755 162.533 559.491 161.948Q555.227 161.363 550.949 160.883Q546.672 160.402 542.384 160.026Q538.097 159.65 533.801 159.379Q529.505 159.108 525.205 158.941Q520.904 158.775 516.6 158.714Q512.296 158.652 507.992 158.696Q503.688 158.739 499.387 158.888Q495.085 159.037 490.788 159.29Q486.492 159.544 482.202 159.902Q477.913 160.26 473.634 160.723Q469.355 161.186 465.088 161.753Q460.821 162.32 456.57 162.991Q452.318 163.661 448.084 164.436Q443.851 165.21 439.637 166.088Q435.423 166.965 431.232 167.945Q427.041 168.926 422.875 170.008Q418.709 171.09 414.571 172.273Q410.432 173.456 406.324 174.74Q402.216 176.024 398.14 177.408Q394.065 178.792 390.024 180.274Q385.983 181.757 381.98 183.338Q377.977 184.919 374.013 186.597Q369.978 188.301 365.986 190.103Q361.994 191.905 358.047 193.805Q354.101 195.705 350.202 197.701Q346.303 199.698 342.455 201.789Q338.607 203.881 334.811 206.066Q331.015 208.252 327.274 210.53Q323.533 212.808 319.85 215.178Q316.166 217.547 312.541 220.006Q308.917 222.466 305.354 225.013Q301.791 227.561 298.292 230.195Q294.793 232.83 291.36 235.55Q287.926 238.269 284.561 241.073Q281.195 243.876 277.9 246.761Q274.604 249.646 271.381 252.611Q268.157 255.577 265.007 258.62Q261.858 261.664 258.784 264.784Q255.71 267.904 252.713 271.099Q249.717 274.294 246.8 277.561Q243.883 280.829 241.048 284.167Q238.212 287.505 235.459 290.912Q232.706 294.319 230.038 297.793Q227.37 301.266 224.788 304.804Q222.206 308.342 219.712 311.943Q217.218 315.543 214.813 319.204Q212.408 322.865 210.093 326.583Q207.779 330.302 205.557 334.076Q203.335 337.851 201.206 341.679Q199.078 345.507 197.044 349.386Q195.01 353.265 193.072 357.193Q191.134 361.121 189.293 365.096Q187.452 369.07 185.71 373.088Q183.967 377.107 182.324 381.167C157.085 443.823 152.553 515.562 165.318 581.557C168.128 596.085 171.03 610.819 176.863 624.479Z"/>
	<path fill="#31BCFE" d="M176.863 624.479C176.965 624.584 177.069 624.687 177.168 624.795C182.488 630.55 189.993 646.992 194.719 654.701C202.682 667.689 211.763 679.963 220.969 692.087C235.282 710.937 250.297 729.374 267.2 745.982C327.224 804.959 407.907 845.036 492.561 849.601Q514.54 850.653 536.506 849.375C545.023 848.9 553.576 847.953 562.098 847.753C572.733 847.503 583.49 848.521 594.112 849.004C599.969 849.271 606.905 848.533 612.574 850.009C610.165 851.228 607.328 851.876 604.737 852.603Q600.591 853.748 596.418 854.791Q592.245 855.833 588.048 856.773Q583.851 857.713 579.631 858.549Q575.412 859.385 571.174 860.118Q566.936 860.85 562.68 861.478Q558.425 862.106 554.156 862.63Q549.887 863.153 545.606 863.571Q541.325 863.99 537.035 864.303Q532.746 864.616 528.449 864.823Q524.153 865.031 519.853 865.132Q515.553 865.234 511.252 865.23Q506.951 865.226 502.651 865.117Q498.351 865.007 494.055 864.792Q489.76 864.577 485.47 864.256Q481.181 863.936 476.901 863.51Q472.621 863.084 468.353 862.553Q464.084 862.022 459.83 861.386Q455.576 860.751 451.339 860.011Q447.102 859.271 442.885 858.427Q438.667 857.583 434.472 856.635Q430.276 855.688 426.105 854.638Q421.934 853.588 417.79 852.436Q413.646 851.283 409.531 850.03Q405.417 848.776 401.335 847.422Q397.252 846.067 393.204 844.613Q389.157 843.158 385.146 841.605Q381.135 840.052 377.163 838.4Q373.192 836.749 369.262 835Q365.332 833.251 361.447 831.407Q357.561 829.562 353.722 827.623Q349.883 825.683 346.092 823.65Q342.302 821.617 338.563 819.491Q335.706 817.898 332.879 816.253Q330.052 814.607 327.256 812.909Q324.46 811.211 321.696 809.461Q318.933 807.711 316.202 805.91Q313.471 804.109 310.775 802.258Q308.078 800.406 305.417 798.504Q302.755 796.603 300.13 794.652Q297.504 792.701 294.915 790.701Q292.327 788.701 289.776 786.654Q287.225 784.606 284.712 782.512Q282.2 780.417 279.727 778.276Q277.254 776.134 274.821 773.948Q272.389 771.76 269.998 769.529Q267.606 767.297 265.257 765.02Q262.908 762.744 260.601 760.425Q258.295 758.105 256.032 755.743Q253.769 753.381 251.551 750.977Q249.333 748.573 247.159 746.128Q244.986 743.683 242.859 741.198Q240.732 738.713 238.652 736.189Q236.571 733.664 234.538 731.102Q232.505 728.539 230.52 725.939Q228.535 723.339 226.599 720.702Q224.663 718.066 222.777 715.393Q220.89 712.721 219.054 710.014Q217.218 707.307 215.432 704.566Q213.647 701.825 211.912 699.052Q210.178 696.278 208.496 693.473Q206.814 690.667 205.185 687.831Q203.555 684.995 201.979 682.128Q200.403 679.262 198.88 676.367Q197.357 673.472 195.889 670.549C188.521 655.963 181.269 640.244 176.863 624.479Z"/>
	<path fill="#222" d="M497.563 188.714Q501.489 188.514 505.419 188.41Q509.349 188.307 513.28 188.299Q517.211 188.292 521.141 188.381Q525.071 188.469 528.998 188.654Q532.925 188.84 536.846 189.121Q540.767 189.402 544.68 189.779Q548.593 190.156 552.495 190.629Q556.398 191.102 560.288 191.671Q564.178 192.239 568.052 192.902Q571.927 193.566 575.785 194.324Q579.642 195.082 583.479 195.935Q587.317 196.787 591.133 197.733Q594.948 198.68 598.74 199.719Q602.531 200.758 606.295 201.89Q610.06 203.022 613.796 204.246Q617.532 205.47 621.236 206.785Q624.941 208.1 628.613 209.505Q632.284 210.91 635.92 212.405Q639.556 213.9 643.154 215.483Q646.752 217.067 650.31 218.738Q653.869 220.409 657.385 222.167Q660.901 223.924 664.373 225.768Q667.845 227.611 671.271 229.539Q674.697 231.467 678.075 233.478Q681.453 235.489 684.78 237.582Q688.108 239.676 691.383 241.85Q694.658 244.024 697.879 246.278Q701.1 248.532 704.265 250.864Q707.43 253.196 710.536 255.604Q713.643 258.013 716.69 260.497Q719.737 262.982 722.722 265.54Q725.707 268.098 728.628 270.728Q731.609 273.369 734.523 276.084Q737.438 278.798 740.284 281.584Q743.13 284.37 745.906 287.226Q748.682 290.082 751.386 293.006Q754.09 295.929 756.721 298.92Q759.352 301.91 761.908 304.964Q764.463 308.019 766.942 311.136Q769.421 314.253 771.822 317.431Q774.223 320.608 776.544 323.845Q778.866 327.081 781.106 330.374Q783.346 333.667 785.504 337.015Q787.661 340.362 789.735 343.762Q791.809 347.162 793.798 350.613Q795.787 354.064 797.689 357.563Q799.592 361.062 801.407 364.607Q803.222 368.152 804.948 371.741Q806.674 375.33 808.311 378.961Q809.948 382.592 811.494 386.262Q813.04 389.932 814.494 393.64Q815.949 397.348 817.311 401.09Q818.673 404.833 819.941 408.608Q821.21 412.383 822.384 416.189Q823.558 419.995 824.638 423.828Q825.718 427.662 826.702 431.521Q827.686 435.38 828.573 439.263Q829.461 443.145 830.252 447.049Q831.043 450.952 831.737 454.874Q832.431 458.795 833.028 462.733Q833.624 466.671 834.123 470.622Q834.621 474.574 835.021 478.536Q835.421 482.499 835.723 486.47Q836.024 490.441 836.227 494.419Q836.447 498.366 836.571 502.317Q836.695 506.268 836.723 510.221Q836.751 514.173 836.683 518.126Q836.616 522.078 836.452 526.027Q836.288 529.977 836.028 533.921Q835.768 537.866 835.412 541.803Q835.057 545.739 834.606 549.667Q834.154 553.594 833.608 557.509Q833.062 561.423 832.42 565.324Q831.779 569.224 831.043 573.108Q830.307 576.992 829.477 580.857Q828.647 584.722 827.723 588.565Q826.8 592.409 825.783 596.229Q824.766 600.048 823.657 603.843Q822.547 607.637 821.346 611.403Q820.145 615.169 818.853 618.904Q817.56 622.64 816.178 626.343Q814.795 630.046 813.323 633.715Q811.851 637.383 810.29 641.015Q808.729 644.647 807.08 648.239Q805.432 651.832 803.696 655.384Q801.961 658.935 800.139 662.444Q798.318 665.952 796.412 669.415Q794.506 672.878 792.517 676.294Q790.527 679.71 788.455 683.076Q786.384 686.442 784.23 689.758Q782.077 693.073 779.844 696.334Q777.611 699.596 775.3 702.803Q772.988 706.009 770.6 709.159Q768.211 712.308 765.746 715.399Q763.282 718.489 760.743 721.519Q758.204 724.549 755.592 727.516Q753.304 730.062 750.964 732.559Q748.623 735.056 746.231 737.503Q743.838 739.95 741.394 742.347Q738.951 744.743 736.458 747.088Q733.964 749.432 731.422 751.724Q728.88 754.016 726.291 756.253Q723.701 758.491 721.065 760.674Q718.429 762.856 715.747 764.983Q713.066 767.11 710.341 769.18Q707.615 771.25 704.847 773.263Q702.078 775.275 699.268 777.229Q696.458 779.183 693.608 781.077Q690.757 782.971 687.868 784.805Q684.978 786.639 682.05 788.412Q679.123 790.185 676.159 791.896Q673.194 793.607 670.195 795.255Q667.195 796.903 664.162 798.488Q661.128 800.073 658.062 801.593Q654.996 803.114 651.899 804.57Q648.801 806.026 645.674 807.416Q642.547 808.807 639.391 810.131Q636.235 811.456 633.052 812.714Q629.869 813.972 626.661 815.162Q623.452 816.353 620.219 817.476Q616.986 818.599 613.73 819.654Q610.474 820.709 607.197 821.695Q603.919 822.681 600.622 823.598Q597.325 824.515 594.009 825.363Q590.693 826.21 587.36 826.988Q584.027 827.766 580.678 828.473Q577.33 829.181 573.967 829.818Q570.604 830.455 567.229 831.021C553.72 833.25 540.049 834.17 526.389 834.906C508.347 835.179 490.283 834.768 472.35 832.636Q469.361 832.28 466.379 831.869Q463.397 831.458 460.423 830.993Q457.449 830.527 454.484 830.007Q451.52 829.486 448.565 828.911Q445.61 828.336 442.667 827.707Q439.723 827.078 436.791 826.395Q433.86 825.711 430.941 824.974Q428.023 824.237 425.119 823.446Q422.214 822.655 419.325 821.811Q416.436 820.967 413.562 820.07Q410.689 819.173 407.833 818.223Q404.976 817.273 402.138 816.27Q399.3 815.268 396.48 814.213Q393.661 813.159 390.861 812.053Q388.062 810.946 385.283 809.789Q382.505 808.631 379.748 807.423Q376.991 806.214 374.257 804.955Q371.523 803.696 368.812 802.386Q366.102 801.077 363.416 799.718Q360.73 798.359 358.07 796.951Q355.409 795.543 352.775 794.086Q350.141 792.629 347.534 791.124Q344.928 789.618 342.349 788.065Q339.77 786.512 337.221 784.912Q334.671 783.312 332.152 781.665Q329.632 780.018 327.143 778.325Q324.654 776.632 322.197 774.894Q319.74 773.155 317.315 771.372Q314.89 769.588 312.498 767.76Q310.107 765.933 307.749 764.061Q305.391 762.189 303.069 760.275Q300.746 758.36 298.459 756.403Q295.47 753.876 292.543 751.276Q289.617 748.677 286.756 746.006Q283.894 743.335 281.1 740.595Q278.305 737.854 275.578 735.046Q272.852 732.237 270.195 729.362Q267.539 726.488 264.954 723.548Q262.369 720.609 259.857 717.607Q257.345 714.605 254.908 711.542Q252.471 708.479 250.11 705.357Q247.749 702.236 245.465 699.056Q243.181 695.877 240.977 692.643Q238.772 689.408 236.648 686.121Q234.524 682.833 232.481 679.494Q230.438 676.155 228.478 672.767Q226.518 669.379 224.643 665.943Q222.767 662.508 220.976 659.027Q219.185 655.547 217.48 652.023Q215.776 648.5 214.158 644.935Q212.541 641.371 211.012 637.768Q209.483 634.164 208.043 630.525Q206.603 626.885 205.253 623.211Q203.903 619.537 202.644 615.831Q201.385 612.124 200.217 608.388Q199.05 604.652 197.974 600.889Q196.899 597.125 195.917 593.336Q194.935 589.547 194.046 585.735Q193.157 581.923 192.363 578.09Q191.568 574.257 190.868 570.406Q190.168 566.555 189.563 562.688Q188.958 558.821 188.449 554.94Q187.939 551.059 187.525 547.167Q187.111 543.274 186.793 539.373C180.223 449.881 208.141 367.409 266.787 299.661Q268.921 297.221 271.104 294.825Q273.286 292.428 275.516 290.075Q277.745 287.723 280.021 285.415Q282.297 283.107 284.619 280.845Q286.94 278.582 289.306 276.367Q291.672 274.151 294.082 271.983Q296.491 269.815 298.943 267.695Q301.396 265.576 303.89 263.505Q306.384 261.435 308.918 259.414Q311.453 257.394 314.027 255.424Q316.601 253.455 319.214 251.536Q321.827 249.618 324.478 247.753Q327.129 245.887 329.816 244.075Q332.503 242.262 335.226 240.503Q337.949 238.744 340.706 237.04Q343.463 235.336 346.254 233.687Q349.044 232.038 351.867 230.445Q354.69 228.851 357.544 227.315Q360.398 225.778 363.282 224.298Q366.166 222.819 369.078 221.397Q371.991 219.975 374.932 218.611Q377.872 217.247 380.839 215.942Q383.806 214.637 386.799 213.391Q389.791 212.146 392.808 210.96Q395.825 209.774 398.864 208.648Q401.904 207.522 404.965 206.457Q408.027 205.392 411.109 204.388Q414.191 203.384 417.292 202.442Q420.394 201.5 423.513 200.619Q426.633 199.739 429.769 198.921Q432.905 198.102 436.057 197.347Q439.21 196.591 442.376 195.898C460.676 191.951 478.921 190.041 497.563 188.714ZM499.117 200.279Q495.252 200.452 491.392 200.719Q487.532 200.985 483.68 201.346Q479.828 201.707 475.986 202.162Q472.144 202.617 468.314 203.165Q464.484 203.714 460.669 204.356Q456.853 204.997 453.055 205.732Q449.256 206.467 445.477 207.294Q441.697 208.121 437.939 209.04Q434.18 209.959 430.446 210.97Q426.711 211.98 423.002 213.081Q419.293 214.183 415.612 215.374Q411.931 216.566 408.281 217.847Q404.63 219.128 401.011 220.497Q397.393 221.867 393.809 223.324Q390.225 224.782 386.678 226.326Q383.13 227.871 379.622 229.501Q376.113 231.132 372.645 232.848Q369.178 234.564 365.753 236.363Q362.328 238.163 358.948 240.046Q355.568 241.929 352.235 243.894Q348.902 245.858 345.618 247.904Q342.334 249.949 339.101 252.074Q335.868 254.199 332.687 256.403Q329.507 258.606 326.381 260.886Q323.256 263.166 320.187 265.522Q317.118 267.878 314.107 270.308Q311.096 272.738 308.146 275.241Q305.195 277.743 302.307 280.317Q299.418 282.891 296.593 285.535Q293.768 288.179 291.009 290.89Q288.249 293.602 285.557 296.381Q282.864 299.159 280.24 302.002Q277.628 304.817 275.087 307.695Q272.545 310.573 270.076 313.514Q267.607 316.454 265.211 319.454Q262.815 322.455 260.493 325.514Q258.172 328.572 255.927 331.688Q253.683 334.803 251.515 337.972Q249.348 341.142 247.26 344.364Q245.172 347.587 243.164 350.86Q241.156 354.133 239.23 357.454Q237.303 360.776 235.46 364.144Q233.616 367.512 231.856 370.925Q230.096 374.337 228.421 377.793Q226.746 381.248 225.157 384.743Q223.568 388.239 222.066 391.772Q220.564 395.306 219.149 398.876Q217.735 402.445 216.409 406.049Q215.083 409.653 213.847 413.288Q212.611 416.923 211.465 420.588Q210.319 424.253 209.264 427.945Q208.208 431.637 207.245 435.353Q206.281 439.07 205.41 442.81Q204.538 446.549 203.76 450.309Q202.981 454.069 202.295 457.847Q201.61 461.625 201.018 465.419Q200.426 469.213 199.928 473.02Q199.43 476.828 199.026 480.646Q198.622 484.464 198.313 488.292Q198.004 492.119 197.789 495.953Q197.574 499.786 197.455 503.624Q197.335 507.462 197.31 511.302Q197.285 515.142 197.355 518.981Q197.425 522.82 197.59 526.656Q197.756 530.462 198.018 534.263Q198.279 538.064 198.635 541.858Q198.99 545.651 199.441 549.434Q199.891 553.218 200.435 556.988Q200.979 560.759 201.617 564.515Q202.255 568.272 202.987 572.011Q203.718 575.75 204.542 579.469Q205.367 583.189 206.283 586.887Q207.2 590.585 208.209 594.259Q209.217 597.933 210.317 601.581Q211.417 605.229 212.607 608.848Q213.797 612.468 215.077 616.056Q216.357 619.645 217.726 623.2Q219.095 626.756 220.552 630.276Q222.009 633.796 223.554 637.279Q225.098 640.762 226.729 644.205Q228.359 647.649 230.075 651.05Q231.791 654.452 233.591 657.81Q235.391 661.168 237.275 664.48Q239.158 667.792 241.123 671.056Q243.088 674.32 245.134 677.534Q247.18 680.748 249.305 683.911Q251.43 687.073 253.633 690.181Q255.837 693.289 258.117 696.342Q260.397 699.394 262.752 702.389Q265.108 705.383 267.537 708.318Q269.966 711.253 272.468 714.127Q274.969 717.001 277.542 719.811Q280.114 722.622 282.756 725.367Q285.397 728.113 288.107 730.792Q290.816 733.47 293.591 736.081Q296.366 738.691 299.205 741.232Q302.086 743.863 305.032 746.423Q307.977 748.983 310.985 751.469Q313.992 753.955 317.061 756.366Q320.129 758.777 323.255 761.111Q326.382 763.446 329.566 765.702Q332.749 767.959 335.987 770.136Q339.225 772.313 342.516 774.41Q345.807 776.507 349.149 778.521Q352.491 780.536 355.881 782.468Q359.272 784.399 362.709 786.247Q366.146 788.094 369.628 789.856Q373.11 791.618 376.634 793.293Q380.158 794.968 383.722 796.556Q387.287 798.144 390.889 799.643Q394.492 801.143 398.13 802.553Q401.769 803.963 405.441 805.282Q409.113 806.602 412.817 807.83Q416.521 809.059 420.253 810.196Q423.986 811.332 427.746 812.377Q431.506 813.421 435.29 814.372Q439.075 815.323 442.882 816.18Q446.688 817.037 450.515 817.801Q454.342 818.564 458.186 819.232Q462.031 819.9 465.891 820.473Q469.75 821.047 473.623 821.524Q477.496 822.002 481.379 822.384Q485.263 822.766 489.154 823.052Q493.046 823.338 496.943 823.527Q500.841 823.717 504.742 823.811Q508.643 823.904 512.545 823.901Q516.447 823.898 520.348 823.799Q524.249 823.7 528.146 823.504C613.751 819.336 690.632 781.788 748.076 718.363C759.571 705.672 769.404 691.804 778.721 677.467C770.392 670.997 761.954 664.294 754.02 657.353C749.371 661.305 730.297 678.009 724.859 677.389C722.566 677.127 720.888 674.769 719.529 673.136C720.011 660.601 722.847 648.129 724.616 635.722C726.835 620.162 727.965 603.007 732.204 587.978C732.936 585.384 733.66 583.347 735.721 581.507C739.218 578.383 743.569 578.46 747.987 578.513Q748.241 520.068 747.558 461.627Q720.798 472.753 694.486 484.902L694.51 583.907L694.536 613.082C694.571 619.271 694.896 625.579 694.458 631.748C694.319 633.714 694.251 635.456 692.799 636.907C691.261 638.443 688.902 639.277 686.845 639.818C680.452 641.5 673.686 641.98 667.207 643.379Q654.622 646.121 642.26 649.735Q629.898 653.349 617.818 657.817C583.968 670.583 550.928 687.106 524.693 712.422C521.635 715.373 516.152 721.705 511.643 721.86C508.007 721.985 504.171 717.365 501.841 714.991C459.792 676.641 400.291 650.186 344.168 642.144C340.979 641.687 333.158 640.608 331.328 637.549C330.394 635.985 330.544 632.908 330.462 631.105C329.548 611.075 330.442 590.995 330.461 570.952C330.489 541.719 329.992 512.424 330.472 483.201Q298.033 468.266 265.326 453.93C254.76 449.194 243.597 444.919 233.538 439.184C230.715 437.574 226.309 434.973 225.061 431.918C224.945 429.161 225.412 427.378 227.366 425.344C229.702 422.912 233.286 421.128 236.334 419.746C244.294 416.134 252.494 412.983 260.529 409.534Q284.628 398.944 308.843 388.625L419.337 341.139C440.379 332.145 461.19 322.681 482.142 313.49C492.131 309.107 502.16 304.283 512.401 300.558C529.992 307.205 547.211 315.542 564.481 323.023L664.734 366.318Q709.628 385.475 754.203 405.362C767.505 411.178 781.618 416.102 794.474 422.77L794.465 439.924C782.761 445.382 770.789 450.569 759.495 456.845L759.427 577.978C764.143 578.128 767.941 578.497 771.235 582.284C772.439 583.668 772.873 585.56 773.301 587.302C775.562 596.498 776.748 606.096 778.402 615.428Q782.608 639.22 787.279 662.926Q789.117 659.565 790.871 656.16Q792.626 652.754 794.297 649.307Q795.968 645.86 797.553 642.373Q799.139 638.886 800.639 635.361Q802.139 631.836 803.552 628.275Q804.965 624.714 806.29 621.12Q807.615 617.526 808.851 613.9Q810.088 610.274 811.235 606.619Q812.383 602.964 813.44 599.282Q814.498 595.6 815.464 591.894Q816.431 588.187 817.307 584.458Q818.182 580.728 818.966 576.979Q819.75 573.229 820.442 569.461Q821.134 565.693 821.733 561.91Q822.332 558.126 822.838 554.329Q823.345 550.532 823.758 546.723Q824.17 542.915 824.49 539.097Q824.809 535.28 825.035 531.456Q825.261 527.631 825.393 523.803Q825.525 519.974 825.563 516.144Q825.601 512.313 825.545 508.483Q825.489 504.653 825.339 500.825Q825.189 496.997 824.946 493.174Q824.702 489.351 824.365 485.535Q824.027 481.719 823.597 477.913Q823.166 474.106 822.642 470.311Q822.118 466.517 821.501 462.736Q820.885 458.955 820.175 455.19Q819.466 451.426 818.664 447.68Q817.863 443.934 816.97 440.209Q816.077 436.483 815.093 432.781Q814.109 429.079 813.034 425.402Q811.957 421.721 810.79 418.067Q809.623 414.413 808.368 410.788Q807.113 407.164 805.77 403.571Q804.427 399.978 802.997 396.418Q801.567 392.859 800.051 389.336Q798.535 385.812 796.934 382.327Q795.333 378.841 793.648 375.395Q791.962 371.95 790.194 368.546Q788.425 365.142 786.574 361.783Q784.723 358.423 782.791 355.109Q780.859 351.796 778.847 348.53Q776.835 345.264 774.744 342.049Q772.654 338.833 770.485 335.669Q768.317 332.505 766.072 329.394Q763.828 326.284 761.508 323.229Q759.188 320.174 756.795 317.176Q754.402 314.178 751.937 311.24Q749.472 308.301 746.936 305.424Q744.4 302.546 741.794 299.73Q739.189 296.915 736.516 294.164Q733.844 291.413 731.105 288.728Q728.366 286.042 725.562 283.424Q722.759 280.806 719.892 278.257Q717.026 275.708 714.099 273.229Q711.172 270.751 708.185 268.344Q705.198 265.937 702.154 263.604Q699.109 261.271 696.009 259.012Q692.909 256.753 689.755 254.57Q686.601 252.388 683.394 250.282Q680.188 248.177 676.931 246.15Q673.675 244.123 670.37 242.176Q667.065 240.229 663.714 238.363C614.564 211.627 555.194 196.502 499.117 200.279ZM743.489 591.017C738.721 612.902 735.602 636.643 732.641 658.905C737.391 655.056 749.804 642.417 755.755 643.683C757.28 644.008 758.756 645.525 759.809 646.604C764.542 650.979 769.355 655.621 774.481 659.524L763.067 591.477C756.532 591.123 750.033 591.02 743.489 591.017Z"/>
	<path fill="#515051" d="M240.92 431.053C244.261 429.695 247.524 428.126 250.8 426.618C257.247 430.594 264.382 433.263 271.588 435.515Q267.478 438.22 263.446 441.039C256.127 437.281 248.422 434.413 240.92 431.053Z"/>
	<path fill="#737272" d="M682.995 610.964C682.985 616.889 682.747 622.91 683.351 628.808C621.353 638.043 559.587 665.555 512.504 707.153C512.359 707.068 512.213 706.985 512.07 706.898C506.98 703.817 502.259 699.358 497.605 695.621Q488.947 688.611 479.586 682.571C440.102 656.618 390.008 636.233 343.067 629.722C342.935 624.041 342.552 618.21 342.798 612.54C392.239 620.221 441.725 634.795 484.004 662.272C493.796 668.635 502.813 675.923 511.985 683.129C525.094 672.408 538.67 661.993 553.257 653.343C585.494 634.228 645.451 612.091 682.995 610.964Z"/>
	<path fill="#737272" d="M512.464 313.623L684.754 387.985L739.902 411.613C752.479 416.923 765.408 421.795 777.562 428.038C769.306 428.489 760.979 428.141 752.718 427.919C749.572 427.834 746.173 427.398 743.061 427.632C737.311 424.355 729.89 422.516 723.695 420.068Q703.954 412.188 684.406 403.842C647.652 388.122 610.527 373.27 573.662 357.807C560.694 352.368 547.665 347.054 534.755 341.482C526.959 338.117 519.288 334.253 511.341 331.274L355.116 399.43Q325.476 411.855 295.983 424.629C288.302 427.932 278.663 430.654 271.887 435.489L271.588 435.515C264.382 433.263 257.247 430.594 250.8 426.618Q337.146 388.604 423.903 351.547L474.783 329.411C487.177 323.922 499.538 317.731 512.464 313.623Z"/>
	<path fill="#949393" d="M342.495 577.501C384.721 576.724 447.367 594.723 484.364 615.072C494.137 620.447 502.724 627.147 511.775 633.581C517.224 631.244 521.821 627.279 526.631 623.884Q534.401 618.303 542.946 613.999C587.069 591.763 633.761 580.352 683 577.675L682.995 610.964C645.451 612.091 585.494 634.228 553.257 653.343C538.67 661.993 525.094 672.408 511.985 683.129C502.813 675.923 493.796 668.635 484.004 662.272C441.725 634.795 392.239 620.221 342.798 612.54Q342.425 595.022 342.495 577.501Z"/>
	<path fill="#515051" d="M342.028 488.981C348.126 490.825 353.976 494.201 359.712 496.973Q372.168 502.911 384.719 508.643Q427.422 528.139 469.732 548.475C483.324 554.899 497.255 560.804 510.637 567.643C526.241 560.191 542.372 553.474 558.145 546.341L683.231 490.792C682.578 508.736 682.981 526.792 682.993 544.75L682.999 565.467C667.573 565.398 651.242 568.302 636.134 571.211C589.652 580.159 551.391 593.116 511.766 619.728C505.788 614.375 498.036 610.002 491.082 605.994C446.41 580.253 392.914 569.564 342.003 565.891C341.946 540.289 342.939 514.566 342.028 488.981Z"/>
	<path fill="#515051" d="M511.341 331.274C519.288 334.253 526.959 338.117 534.755 341.482C547.665 347.054 560.694 352.368 573.662 357.807C610.527 373.27 647.652 388.122 684.406 403.842Q703.954 412.188 723.695 420.068C729.89 422.516 737.311 424.355 743.061 427.632C735.557 428.66 727.364 428.083 719.778 428.11L677.066 428.314L525.528 429.005L520.352 425.496C516.515 425.448 512.928 425.443 509.925 428.243C508.2 429.852 507.258 432.11 507.186 434.454Q507.171 434.97 507.206 435.484Q507.241 435.999 507.326 436.508Q507.412 437.017 507.546 437.515Q507.681 438.013 507.864 438.495Q508.047 438.978 508.276 439.44Q508.506 439.902 508.779 440.339Q509.053 440.777 509.368 441.186Q509.683 441.594 510.036 441.97C511.909 443.933 514.407 445.047 517.133 444.973C521.063 444.866 523.731 442.633 526.582 440.204Q568.375 439.766 610.169 439.977Q673.42 439.905 736.664 440.796C693.539 461.8 649.296 480.991 605.5 500.555C573.887 514.677 542.584 529.621 510.599 542.876C468.837 524.417 427.693 504.314 386.141 485.332Q329.34 459.664 271.887 435.489C278.663 430.654 288.302 427.932 295.983 424.629Q325.476 411.855 355.116 399.43L511.341 331.274Z"/>
</svg>
